<?xml version="1.0" standalone="no"?>
<!DOCTYPE svg PUBLIC "-//W3C//DTD SVG 20010904//EN"
 "http://www.w3.org/TR/2001/REC-SVG-20010904/DTD/svg10.dtd">
<svg version="1.0" xmlns="http://www.w3.org/2000/svg"
 width="229.000000pt" height="291.000000pt" viewBox="0 0 229.000000 291.000000"
 preserveAspectRatio="xMidYMid meet">

<g transform="translate(0.000000,291.000000) scale(0.100000,-0.100000)"
fill="#000000" stroke="none">
<path d="M218 2843 c-16 -2 -28 -9 -28 -14 0 -5 -5 -9 -10 -9 -16 0 -80 -68
-80 -85 0 -8 -4 -15 -10 -15 -7 0 -10 -427 -10 -1260 0 -833 3 -1260 10 -1260
6 0 10 -7 10 -15 0 -23 86 -105 110 -105 11 0 20 -4 20 -10 0 -7 310 -10 910
-10 600 0 910 3 910 10 0 6 11 10 25 10 33 0 105 72 123 121 9 27 12 256 11
1020 l0 984 -100 95 c-106 101 -488 482 -527 525 l-23 25 -657 -1 c-361 -1
-669 -4 -684 -6z m1268 -77 c11 -12 14 -60 14 -255 0 -154 4 -241 10 -241 6 0
10 -7 10 -15 0 -17 64 -85 80 -85 5 0 10 -4 10 -10 0 -5 14 -10 30 -10 17 0
30 -4 30 -10 0 -6 83 -10 230 -10 l230 0 0 -955 c0 -630 -3 -955 -10 -955 -5
0 -10 -7 -10 -16 0 -20 -24 -44 -44 -44 -9 0 -16 -4 -16 -10 0 -7 -307 -10
-900 -10 -593 0 -900 3 -900 10 0 6 -9 10 -21 10 -24 0 -49 22 -49 44 0 9 -4
16 -10 16 -7 0 -10 420 -10 1240 0 820 3 1240 10 1240 6 0 10 9 10 20 0 11 7
20 15 20 8 0 15 5 15 10 0 6 11 10 25 10 14 0 25 5 25 10 0 7 209 10 606 10
511 0 608 -2 620 -14z m120 -81 c9 -8 13 -15 9 -15 -6 0 218 -222 354 -350 44
-41 80 -78 80 -82 1 -5 -89 -8 -199 -8 -127 0 -200 4 -200 10 0 6 -7 10 -16
10 -8 0 -23 8 -32 17 -15 14 -17 46 -20 225 -2 114 -1 208 3 208 4 0 13 -7 21
-15z"/>
<path d="M875 1869 c-55 -29 -91 -65 -115 -114 -17 -35 -20 -62 -20 -181 0
-118 3 -146 21 -184 41 -91 53 -98 355 -211 121 -45 222 -87 226 -93 13 -19 9
-181 -4 -194 -17 -17 -359 -17 -376 0 -7 7 -12 33 -12 59 0 40 -4 51 -31 73
-47 40 -130 34 -166 -13 -7 -9 -13 -47 -13 -87 0 -119 57 -204 165 -240 35
-12 88 -15 268 -12 l224 3 49 30 c30 19 60 49 79 79 29 48 30 54 33 184 4 170
-6 211 -67 272 -42 42 -64 52 -271 129 -124 46 -235 89 -247 97 -21 13 -23 22
-23 103 0 63 4 92 14 100 9 8 70 11 197 9 l184 -3 3 -40 c4 -67 11 -84 42
-100 61 -31 154 -9 166 40 3 14 4 57 2 95 -4 81 -35 134 -107 185 l-43 30
-246 3 c-236 2 -249 2 -287 -19z"/>
</g>
</svg>
